<svg t="1720699345713" class="icon" viewBox="0 0 1024 1024" version="1.1" xmlns="http://www.w3.org/2000/svg" p-id="7063" width="200" height="200"><path d="M184.552727 768l0-512c0-38.539636 31.278545-69.818182 69.818182-69.818182l302.545455 0L556.916364 139.636364l-325.818182 0c-51.432727 0-93.090909 41.658182-93.090909 93.090909l0 558.545455c0 51.432727 41.658182 93.090909 93.090909 93.090909l325.818182 0 0-46.545455-302.545455 0C215.784727 837.818182 184.552727 806.539636 184.552727 768zM924.113455 495.522909l-164.584727-164.584727c-9.076364-9.076364-23.831273-9.076364-32.907636 0-9.076364 9.076364-9.076364 23.831273 0 32.907636l124.834909 124.834909L394.007273 488.680727c-12.846545 0-23.272727 10.426182-23.272727 23.272727s10.426182 23.272727 23.272727 23.272727l457.448727 0-124.834909 124.834909c-9.076364 9.076364-9.076364 23.831273 0 32.907636 9.076364 9.076364 23.831273 9.076364 32.907636 0l164.584727-164.584727C933.189818 519.354182 933.189818 504.645818 924.113455 495.522909z" fill="#7153e1" p-id="7064"></path></svg>