<svg t="1720929117868" class="icon" viewBox="0 0 1024 1024" version="1.1" xmlns="http://www.w3.org/2000/svg" p-id="6116" width="200" height="200"><path d="M253.6 679.2l109.6-109.6C356 552 352 532.8 352 512c0-88 72-160 160-160 20.8 0 40 4 57.6 11.2l82.4-82.4C607.2 264.8 560 256 512 256c-168 0-329.6 106.4-384 256 24 65.6 68.8 123.2 125.6 167.2z" p-id="6117" fill="#d387f4"></path><path d="M416 512v4.8L516.8 416H512c-52.8 0-96 43.2-96 96zM770.4 344.8l163.2-163.2L888 136l-753.6 753.6 45.6 45.6 192.8-192.8A390.4 390.4 0 0 0 512 768c167.2 0 330.4-106.4 384.8-256-24-65.6-69.6-123.2-126.4-167.2zM512 672c-20 0-40-4-57.6-11.2l53.6-53.6h4.8c52.8 0 96-43.2 96-96v-4.8l53.6-53.6C668 472 672 492 672 512c0 88-72 160-160 160z" p-id="6118" fill="#d387f4"></path></svg>